HIERARCHY
ROOT Hips
{
	OFFSET 0.000000 0.000000 0.000000
	CHANNELS 6 Xposition Yposition Zposition Zrotation Yrotation Xrotation 
	JOINT LHipJoint
	{
		OFFSET 0.000000 0.000000 0.000000
		CHANNELS 3 Zrotation Yrotation Xrotation
		JOINT LeftUpLeg
		{
			OFFSET 1.363060 -1.794630 0.839290
			CHANNELS 3 Zrotation Yrotation Xrotation
			JOINT LeftLeg
			{
				OFFSET 2.448110 -6.726130 0.000000
				CHANNELS 3 Zrotation Yrotation Xrotation
				JOINT LeftFoot
				{
					OFFSET 2.562200 -7.039590 0.000000
					CHANNELS 3 Zrotation Yrotation Xrotation
					JOINT LeftToeBase
					{
						OFFSET 0.157640 -0.433110 2.322550
						CHANNELS 3 Zrotation Yrotation Xrotation
						End Site
						{
							OFFSET 0.000000 0.000000 0.000000
						}
					}
				}
			}
		}
	}
	JOINT RHipJoint
	{
		OFFSET 0.000000 0.000000 0.000000
		CHANNELS 3 Zrotation Yrotation Xrotation
		JOINT RightUpLeg
		{
			OFFSET -1.305520 -1.794630 0.839290
			CHANNELS 3 Zrotation Yrotation Xrotation
			JOINT RightLeg
			{
				OFFSET -2.542530 -6.985550 0.000000
				CHANNELS 3 Zrotation Yrotation Xrotation
				JOINT RightFoot
				{
					OFFSET -2.568260 -7.056230 0.000000
					CHANNELS 3 Zrotation Yrotation Xrotation
					JOINT RightToeBase
					{
						OFFSET -0.164730 -0.452590 2.363150
						CHANNELS 3 Zrotation Yrotation Xrotation
						End Site
						{
							OFFSET 0.000000 0.000000 0.000000
						}
					}
				}
			}
		}
	}
	JOINT LowerBack
	{
		OFFSET 0.000000 0.000000 0.000000
		CHANNELS 3 Zrotation Yrotation Xrotation
		JOINT Spine
		{
			OFFSET 0.028270 2.035590 -0.193380
			CHANNELS 3 Zrotation Yrotation Xrotation
			JOINT Spine1
			{
				OFFSET 0.056720 2.048850 -0.042750
				CHANNELS 3 Zrotation Yrotation Xrotation
				JOINT Neck
				{
					OFFSET 0.000000 0.000000 0.000000
					CHANNELS 3 Zrotation Yrotation Xrotation
					JOINT Neck1
					{
						OFFSET -0.054170 1.746240 0.172020
						CHANNELS 3 Zrotation Yrotation Xrotation
						JOINT Head
						{
							OFFSET 0.104070 1.761360 -0.123970
							CHANNELS 3 Zrotation Yrotation Xrotation
							End Site
							{
								OFFSET 0.000000 0.000000 0.000000
							}
						}
					}
				}
				JOINT LeftShoulder
				{
					OFFSET 0.000000 0.000000 0.000000
					CHANNELS 3 Zrotation Yrotation Xrotation
					JOINT LeftArm
					{
						OFFSET 3.362410 1.200890 -0.311210
						CHANNELS 3 Zrotation Yrotation Xrotation
						JOINT LeftForeArm
						{
							OFFSET 4.983000 -0.000000 -0.000000
							CHANNELS 3 Zrotation Yrotation Xrotation
							JOINT LeftHand
							{
								OFFSET 3.483560 -0.000000 -0.000000
								CHANNELS 3 Zrotation Yrotation Xrotation
								JOINT LeftFingerBase
								{
									OFFSET 0.000000 0.000000 0.000000
									CHANNELS 3 Zrotation Yrotation Xrotation
									JOINT LeftHandIndex1
									{
										OFFSET 0.715260 -0.000000 -0.000000
										CHANNELS 3 Zrotation Yrotation Xrotation
										End Site
										{
											OFFSET 0.000000 0.000000 0.000000
										}
									}
								}
								JOINT LThumb
								{
									OFFSET 0.000000 0.000000 0.000000
									CHANNELS 3 Zrotation Yrotation Xrotation
									End Site
									{
										OFFSET 0.000000 0.000000 0.000000
									}
								}
							}
						}
					}
				}
				JOINT RightShoulder
				{
					OFFSET 0.000000 0.000000 0.000000
					CHANNELS 3 Zrotation Yrotation Xrotation
					JOINT RightArm
					{
						OFFSET -3.136600 1.374050 -0.404650
						CHANNELS 3 Zrotation Yrotation Xrotation
						JOINT RightForeArm
						{
							OFFSET -5.241900 -0.000000 -0.000000
							CHANNELS 3 Zrotation Yrotation Xrotation
							JOINT RightHand
							{
								OFFSET -3.444170 -0.000000 -0.000000
								CHANNELS 3 Zrotation Yrotation Xrotation
								JOINT RightFingerBase
								{
									OFFSET 0.000000 0.000000 0.000000
									CHANNELS 3 Zrotation Yrotation Xrotation
									JOINT RightHandIndex1
									{
										OFFSET -0.622530 -0.000000 -0.000000
										CHANNELS 3 Zrotation Yrotation Xrotation
										End Site
										{
											OFFSET 0.000000 0.000000 0.000000
										}
									}
								}
								JOINT RThumb
								{
									OFFSET 0.000000 0.000000 0.000000
									CHANNELS 3 Zrotation Yrotation Xrotation
									End Site
									{
										OFFSET 0.000000 0.000000 0.000000
									}
								}
							}
						}
					}
				}
			}
		}
	}
}
MOTION
Frames: 4
Frame Time: 0.008333
24.302466 16.747025 4.124657 -163.896604 -85.864714 -170.333139 -12.590767 5.392578 1.662227 -3.045261 13.167256 -7.531214 -0.840768 0.681049 18.405679 0.932414 1.972615 22.162431 0.534899 0.000000 -86.789600 8.272656 -1.676582 5.206524 11.652389 5.645206 -49.101915 3.206792 -1.848838 33.229482 0.519913 6.570237 -11.170385 -0.018200 0.000000 -35.940500 9.026718 -3.103564 -7.577819 1.315557 -4.096777 -4.486826 -6.477364 -4.110328 -0.159048 7.345566 -9.674575 -8.879468 -3.964683 -0.283556 -0.399713 0.000000 0.000000 0.000000 3.246568 4.523819 1.427392 -52.262558 -11.682579 3.266186 -179.683177 -83.182862 179.950679 6.778437 -1.987285 -0.150747 -0.208912 0.549591 0.000000 0.000000 0.000000 0.000000 0.000000 0.000000 0.000000 12.118156 -5.687888 1.829914 52.745317 9.591255 -19.362083 0.448438 75.633266 -0.012424 -3.279233 4.240566 -0.133993 0.081985 -0.355829 -0.000000 0.000000 0.000000 0.000000 0.000000 0.000000 0.000000 
24.128983 16.720130 4.089808 -161.878270 -86.067495 -172.513284 -12.596678 5.399642 1.711200 -2.607582 13.102470 -7.514434 -0.719120 0.718713 19.407120 1.005713 1.939655 23.067687 0.495000 -0.000000 -85.694100 8.292381 -1.697630 5.172299 11.719140 5.845573 -48.758456 3.094951 -1.952725 34.767337 0.377372 6.270227 -12.480096 -0.071899 0.000000 -34.047200 9.322358 -3.139374 -7.627051 1.374710 -4.159713 -4.491287 -6.494413 -4.171894 -0.138059 7.129803 -9.563396 -8.865956 -4.038014 -0.289331 -0.398292 0.000000 0.000000 0.000000 3.210047 4.571158 1.434602 -52.203795 -11.699614 3.322143 -179.697513 -83.311363 179.952979 6.552177 -2.112192 -0.153056 -0.204173 0.550680 0.000000 0.000000 0.000000 0.000000 0.000000 0.000000 0.000000 12.289899 -5.667860 1.808768 52.473545 10.154108 -20.221263 0.465701 74.508306 -0.018191 -4.324330 4.332845 -0.180023 0.091039 -0.356745 0.000000 0.000000 0.000000 0.000000 0.000000 0.000000 0.000000 
23.956273 16.699049 4.055479 -159.063548 -86.299568 -175.480271 -12.604870 5.373678 1.746349 -2.142244 13.054718 -7.585834 -0.586989 0.748618 20.486925 1.091297 1.964477 24.078472 0.480499 -0.000000 -84.167200 8.296286 -1.747749 5.157672 11.837936 6.081204 -48.265711 3.009614 -2.019599 35.940174 0.209942 5.825835 -13.743291 -0.101000 -0.000001 -32.903200 9.632293 -3.178867 -7.675400 1.437100 -4.228493 -4.495612 -6.516589 -4.239802 -0.116946 6.917931 -9.433096 -8.843857 -4.111422 -0.295160 -0.394811 0.000000 0.000000 0.000000 3.138697 4.628179 1.448368 -52.194103 -11.721004 3.415322 -179.720175 -83.580198 179.955332 6.330511 -2.229554 -0.154470 -0.199549 0.550510 0.000000 0.000000 0.000000 0.000000 0.000000 0.000000 0.000000 12.468123 -5.637472 1.779733 52.296973 10.740262 -21.069269 0.478841 73.292802 -0.024080 -5.385059 4.438807 -0.229058 0.099342 -0.357495 0.000000 0.000000 0.000000 0.000000 0.000000 0.000000 0.000000 
23.784776 16.683815 4.021094 -155.612831 -86.568941 -179.074066 -12.617914 5.315678 1.774072 -1.674237 12.998758 -7.745085 -0.446283 0.768703 21.636742 1.188854 2.070623 25.166122 0.506400 -0.000000 -82.089800 8.282253 -1.825172 5.159711 11.990240 6.331034 -47.633918 2.948278 -2.052157 36.745036 0.022603 5.257843 -14.925876 -0.098100 0.000000 -32.421000 9.928007 -3.224956 -7.728760 1.497654 -4.303937 -4.500311 -6.543147 -4.315272 -0.093734 6.713376 -9.291344 -8.814387 -4.183365 -0.300919 -0.389403 0.000000 0.000000 0.000000 3.041037 4.690040 1.467217 -52.228652 -11.750382 3.551480 -179.751840 -83.998185 179.957672 6.120404 -2.339914 -0.155286 -0.195173 0.549042 0.000000 0.000000 0.000000 0.000000 0.000000 0.000000 0.000000 12.651062 -5.604721 1.742541 52.224999 11.339009 -21.902338 0.486388 72.007755 -0.029978 -6.444866 4.554089 -0.280496 0.106753 -0.358040 0.000000 0.000000 0.000000 0.000000 0.000000 0.000000 0.000000 
